REM DIRINDEX 1\3,1\2\4,1\2\5,1\2\6
REM DIRNAME folder01,folder02,folder03,folder04,folder05,folder06
TITLE ""
FILE "078.mp3" MP3
  TRACK 01 AUDIO
    TITLE "4:cjc137_3200"
    INDEX 01 00:00:00
  TRACK 02 AUDIO
    TITLE "0:"
    INDEX 01 00:01:32
  TRACK 03 AUDIO
    TITLE "6:cjc137_3201"
    INDEX 01 00:01:40
  TRACK 04 AUDIO
    TITLE "0:"
    INDEX 01 00:02:49
  TRACK 05 AUDIO
    TITLE "5:cjc137_3202"
    INDEX 01 00:02:57
  TRACK 06 AUDIO
    TITLE "0:"
    INDEX 01 00:04:15
  TRACK 07 AUDIO
    TITLE "4:cjc137_3203"
    INDEX 01 00:05:24
  TRACK 08 AUDIO
    TITLE "0:"
    INDEX 01 00:06:45
  TRACK 09 AUDIO
    TITLE "6:cjc137_3204"
    INDEX 01 00:06:49
  TRACK 10 AUDIO
    TITLE "0:"
    INDEX 01 00:07:52
  TRACK 11 AUDIO
    TITLE "5:cjc137_3205"
    INDEX 01 00:07:58
  TRACK 12 AUDIO
    TITLE "0:"
    INDEX 01 00:09:02
  TRACK 13 AUDIO
    TITLE "4:cjc137_3206"
    INDEX 01 00:10:08
  TRACK 14 AUDIO
    TITLE "0:"
    INDEX 01 00:11:27
  TRACK 15 AUDIO
    TITLE "6:cjc137_3207"
    INDEX 01 00:11:35
  TRACK 16 AUDIO
    TITLE "0:"
    INDEX 01 00:12:38
  TRACK 17 AUDIO
    TITLE "5:cjc137_3208"
    INDEX 01 00:12:44
  TRACK 18 AUDIO
    TITLE "0:"
    INDEX 01 00:13:63
  TRACK 19 AUDIO
    TITLE "4:cjc137_3209"
    INDEX 01 00:14:72
  TRACK 20 AUDIO
    TITLE "0:"
    INDEX 01 00:16:02
  TRACK 21 AUDIO
    TITLE "6:cjc137_3210"
    INDEX 01 00:16:06
  TRACK 22 AUDIO
    TITLE "0:"
    INDEX 01 00:17:08
  TRACK 23 AUDIO
    TITLE "5:cjc137_3211"
    INDEX 01 00:17:14
  TRACK 24 AUDIO
    TITLE "0:"
    INDEX 01 00:18:19
  TRACK 25 AUDIO
    TITLE "4:cjc137_3212"
    INDEX 01 00:19:26
  TRACK 26 AUDIO
    TITLE "0:"
    INDEX 01 00:20:26
  TRACK 27 AUDIO
    TITLE "6:cjc137_3213"
    INDEX 01 00:20:36
  TRACK 28 AUDIO
    TITLE "0:"
    INDEX 01 00:21:23
  TRACK 29 AUDIO
    TITLE "5:cjc137_3214"
    INDEX 01 00:21:27
  TRACK 30 AUDIO
    TITLE "0:"
    INDEX 01 00:22:27
  TRACK 31 AUDIO
    TITLE "4:cjc137_3215"
    INDEX 01 00:23:40
  TRACK 32 AUDIO
    TITLE "0:"
    INDEX 01 00:24:51
  TRACK 33 AUDIO
    TITLE "6:cjc137_3216"
    INDEX 01 00:24:57
  TRACK 34 AUDIO
    TITLE "0:"
    INDEX 01 00:25:70
  TRACK 35 AUDIO
    TITLE "5:cjc137_3217"
    INDEX 01 00:26:03
  TRACK 36 AUDIO
    TITLE "0:"
    INDEX 01 00:27:14
  TRACK 37 AUDIO
    TITLE "4:cjc137_3218"
    INDEX 01 00:28:21
  TRACK 38 AUDIO
    TITLE "0:"
    INDEX 01 00:29:46
  TRACK 39 AUDIO
    TITLE "6:cjc137_3219"
    INDEX 01 00:29:50
  TRACK 40 AUDIO
    TITLE "0:"
    INDEX 01 00:30:67
  TRACK 41 AUDIO
    TITLE "5:cjc137_3220"
    INDEX 01 00:30:73
  TRACK 42 AUDIO
    TITLE "0:"
    INDEX 01 00:32:23
  TRACK 43 AUDIO
    TITLE "4:cjc137_3221"
    INDEX 01 00:33:28
  TRACK 44 AUDIO
    TITLE "0:"
    INDEX 01 00:34:55
  TRACK 45 AUDIO
    TITLE "6:cjc137_3222"
    INDEX 01 00:34:61
  TRACK 46 AUDIO
    TITLE "0:"
    INDEX 01 00:36:13
  TRACK 47 AUDIO
    TITLE "5:cjc137_3223"
    INDEX 01 00:36:19
  TRACK 48 AUDIO
    TITLE "0:"
    INDEX 01 00:37:44
  TRACK 49 AUDIO
    TITLE "4:cjc137_3224"
    INDEX 01 00:38:53
  TRACK 50 AUDIO
    TITLE "0:"
    INDEX 01 00:39:52
  TRACK 51 AUDIO
    TITLE "6:cjc137_3225"
    INDEX 01 00:39:62
  TRACK 52 AUDIO
    TITLE "0:"
    INDEX 01 00:40:56
  TRACK 53 AUDIO
    TITLE "5:cjc137_3226"
    INDEX 01 00:40:60
  TRACK 54 AUDIO
    TITLE "0:"
    INDEX 01 00:41:61
  TRACK 55 AUDIO
    TITLE "4:cjc137_3227"
    INDEX 01 00:42:72
  TRACK 56 AUDIO
    TITLE "0:"
    INDEX 01 00:44:32
  TRACK 57 AUDIO
    TITLE "6:cjc137_3228"
    INDEX 01 00:44:42
  TRACK 58 AUDIO
    TITLE "0:"
    INDEX 01 00:45:55
  TRACK 59 AUDIO
    TITLE "5:cjc137_3229"
    INDEX 01 00:45:61
  TRACK 60 AUDIO
    TITLE "0:"
    INDEX 01 00:47:19
  TRACK 61 AUDIO
    TITLE "4:cjc137_3230"
    INDEX 01 00:48:28
  TRACK 62 AUDIO
    TITLE "0:"
    INDEX 01 00:49:47
  TRACK 63 AUDIO
    TITLE "6:cjc137_3231"
    INDEX 01 00:49:53
  TRACK 64 AUDIO
    TITLE "0:"
    INDEX 01 00:51:07
  TRACK 65 AUDIO
    TITLE "5:cjc137_3232"
    INDEX 01 00:51:15
  TRACK 66 AUDIO
    TITLE "0:"
    INDEX 01 00:52:30
  TRACK 67 AUDIO
    TITLE "4:cjc137_3233"
    INDEX 01 00:53:39
  TRACK 68 AUDIO
    TITLE "0:"
    INDEX 01 00:54:56
  TRACK 69 AUDIO
    TITLE "6:cjc137_3234"
    INDEX 01 00:54:64
  TRACK 70 AUDIO
    TITLE "0:"
    INDEX 01 00:56:10
  TRACK 71 AUDIO
    TITLE "5:cjc137_3235"
    INDEX 01 00:56:16
  TRACK 72 AUDIO
    TITLE "0:"
    INDEX 01 00:57:33
  TRACK 73 AUDIO
    TITLE "4:cjc137_3236"
    INDEX 01 00:58:44
  TRACK 74 AUDIO
    TITLE "0:"
    INDEX 01 00:59:73
  TRACK 75 AUDIO
    TITLE "6:cjc137_3237"
    INDEX 01 01:00:04
  TRACK 76 AUDIO
    TITLE "0:"
    INDEX 01 01:01:21
  TRACK 77 AUDIO
    TITLE "5:cjc137_3238"
    INDEX 01 01:01:27
  TRACK 78 AUDIO
    TITLE "0:"
    INDEX 01 01:02:55
  TRACK 79 AUDIO
    TITLE "4:cjc137_3239"
    INDEX 01 01:03:65
  TRACK 80 AUDIO
    TITLE "0:"
    INDEX 01 01:04:62
  TRACK 81 AUDIO
    TITLE "6:cjc137_3240"
    INDEX 01 01:04:70
  TRACK 82 AUDIO
    TITLE "0:"
    INDEX 01 01:05:60
  TRACK 83 AUDIO
    TITLE "5:cjc137_3241"
    INDEX 01 01:05:68
  TRACK 84 AUDIO
    TITLE "0:"
    INDEX 01 01:06:65
